<mxfile host="app.diagrams.net" modified="2023-10-05T17:54:58.573Z" agent="Mozilla/5.0 (Windows NT 10.0; Win64; x64) AppleWebKit/537.36 (KHTML, like Gecko) Chrome/117.0.0.0 Safari/537.36" etag="DORj19JLX-_EOALKjjQD" version="22.0.0" type="github">
  <diagram id="C5RBs43oDa-KdzZeNtuy" name="Page-1">
    <mxGraphModel dx="1050" dy="534" grid="1" gridSize="10" guides="1" tooltips="1" connect="1" arrows="1" fold="1" page="1" pageScale="1" pageWidth="827" pageHeight="1169" math="0" shadow="0">
      <root>
        <mxCell id="WIyWlLk6GJQsqaUBKTNV-0" />
        <mxCell id="WIyWlLk6GJQsqaUBKTNV-1" parent="WIyWlLk6GJQsqaUBKTNV-0" />
        <mxCell id="9HEpveWAv9ixlDzTCL7B-12" style="edgeStyle=orthogonalEdgeStyle;rounded=0;orthogonalLoop=1;jettySize=auto;html=1;exitX=0.5;exitY=1;exitDx=0;exitDy=0;entryX=0.5;entryY=0;entryDx=0;entryDy=0;" parent="WIyWlLk6GJQsqaUBKTNV-1" source="9HEpveWAv9ixlDzTCL7B-0" target="9HEpveWAv9ixlDzTCL7B-9" edge="1">
          <mxGeometry relative="1" as="geometry" />
        </mxCell>
        <mxCell id="9HEpveWAv9ixlDzTCL7B-0" value="START" style="rounded=1;whiteSpace=wrap;html=1;arcSize=50;" parent="WIyWlLk6GJQsqaUBKTNV-1" vertex="1">
          <mxGeometry x="60" y="200" width="120" height="40" as="geometry" />
        </mxCell>
        <mxCell id="9HEpveWAv9ixlDzTCL7B-14" style="edgeStyle=orthogonalEdgeStyle;rounded=0;orthogonalLoop=1;jettySize=auto;html=1;exitX=0.5;exitY=1;exitDx=0;exitDy=0;entryX=0.5;entryY=0;entryDx=0;entryDy=0;" parent="WIyWlLk6GJQsqaUBKTNV-1" target="9HEpveWAv9ixlDzTCL7B-3" edge="1">
          <mxGeometry relative="1" as="geometry">
            <mxPoint x="120" y="360" as="sourcePoint" />
          </mxGeometry>
        </mxCell>
        <mxCell id="9HEpveWAv9ixlDzTCL7B-15" style="edgeStyle=orthogonalEdgeStyle;rounded=0;orthogonalLoop=1;jettySize=auto;html=1;exitX=0.5;exitY=1;exitDx=0;exitDy=0;entryX=0.5;entryY=0;entryDx=0;entryDy=0;" parent="WIyWlLk6GJQsqaUBKTNV-1" source="9HEpveWAv9ixlDzTCL7B-3" target="9HEpveWAv9ixlDzTCL7B-4" edge="1">
          <mxGeometry relative="1" as="geometry" />
        </mxCell>
        <mxCell id="9HEpveWAv9ixlDzTCL7B-19" style="edgeStyle=orthogonalEdgeStyle;rounded=0;orthogonalLoop=1;jettySize=auto;html=1;exitX=1;exitY=0.5;exitDx=0;exitDy=0;entryX=0.5;entryY=0;entryDx=0;entryDy=0;" parent="WIyWlLk6GJQsqaUBKTNV-1" source="9HEpveWAv9ixlDzTCL7B-3" target="9HEpveWAv9ixlDzTCL7B-5" edge="1">
          <mxGeometry relative="1" as="geometry">
            <mxPoint x="280" y="440" as="targetPoint" />
          </mxGeometry>
        </mxCell>
        <mxCell id="9HEpveWAv9ixlDzTCL7B-3" value="nilai = 1" style="rhombus;whiteSpace=wrap;html=1;" parent="WIyWlLk6GJQsqaUBKTNV-1" vertex="1">
          <mxGeometry x="80" y="400" width="80" height="80" as="geometry" />
        </mxCell>
        <mxCell id="9HEpveWAv9ixlDzTCL7B-18" style="edgeStyle=orthogonalEdgeStyle;rounded=0;orthogonalLoop=1;jettySize=auto;html=1;exitX=0.5;exitY=1;exitDx=0;exitDy=0;entryX=0.5;entryY=0;entryDx=0;entryDy=0;" parent="WIyWlLk6GJQsqaUBKTNV-1" source="9HEpveWAv9ixlDzTCL7B-4" target="9HEpveWAv9ixlDzTCL7B-16" edge="1">
          <mxGeometry relative="1" as="geometry" />
        </mxCell>
        <mxCell id="9HEpveWAv9ixlDzTCL7B-4" value="&quot;Hasil&lt;br/&gt;Konversi dari Nilai 1 Adalah A&quot;" style="shape=parallelogram;perimeter=parallelogramPerimeter;whiteSpace=wrap;html=1;fixedSize=1;size=15;" parent="WIyWlLk6GJQsqaUBKTNV-1" vertex="1">
          <mxGeometry x="40" y="520" width="160" height="80" as="geometry" />
        </mxCell>
        <mxCell id="9HEpveWAv9ixlDzTCL7B-20" style="edgeStyle=orthogonalEdgeStyle;rounded=0;orthogonalLoop=1;jettySize=auto;html=1;exitX=0.5;exitY=1;exitDx=0;exitDy=0;entryX=0.5;entryY=0;entryDx=0;entryDy=0;" parent="WIyWlLk6GJQsqaUBKTNV-1" source="9HEpveWAv9ixlDzTCL7B-5" target="9HEpveWAv9ixlDzTCL7B-6" edge="1">
          <mxGeometry relative="1" as="geometry" />
        </mxCell>
        <mxCell id="9HEpveWAv9ixlDzTCL7B-22" style="edgeStyle=orthogonalEdgeStyle;rounded=0;orthogonalLoop=1;jettySize=auto;html=1;exitX=1;exitY=0.5;exitDx=0;exitDy=0;entryX=0.5;entryY=0;entryDx=0;entryDy=0;" parent="WIyWlLk6GJQsqaUBKTNV-1" source="9HEpveWAv9ixlDzTCL7B-5" target="9HEpveWAv9ixlDzTCL7B-7" edge="1">
          <mxGeometry relative="1" as="geometry">
            <mxPoint x="440" y="560" as="targetPoint" />
          </mxGeometry>
        </mxCell>
        <mxCell id="9HEpveWAv9ixlDzTCL7B-5" value="nilai = 2" style="rhombus;whiteSpace=wrap;html=1;" parent="WIyWlLk6GJQsqaUBKTNV-1" vertex="1">
          <mxGeometry x="240" y="520" width="80" height="80" as="geometry" />
        </mxCell>
        <mxCell id="9HEpveWAv9ixlDzTCL7B-21" style="edgeStyle=orthogonalEdgeStyle;rounded=0;orthogonalLoop=1;jettySize=auto;html=1;exitX=0;exitY=0.5;exitDx=0;exitDy=0;" parent="WIyWlLk6GJQsqaUBKTNV-1" source="9HEpveWAv9ixlDzTCL7B-6" edge="1">
          <mxGeometry relative="1" as="geometry">
            <mxPoint x="120" y="680" as="targetPoint" />
          </mxGeometry>
        </mxCell>
        <mxCell id="9HEpveWAv9ixlDzTCL7B-6" value="&quot;Hasil&lt;br/&gt;Konversi dari Nilai 2 Adalah B&quot;" style="shape=parallelogram;perimeter=parallelogramPerimeter;whiteSpace=wrap;html=1;fixedSize=1;size=15;" parent="WIyWlLk6GJQsqaUBKTNV-1" vertex="1">
          <mxGeometry x="200" y="640" width="160" height="80" as="geometry" />
        </mxCell>
        <mxCell id="9HEpveWAv9ixlDzTCL7B-23" style="edgeStyle=orthogonalEdgeStyle;rounded=0;orthogonalLoop=1;jettySize=auto;html=1;exitX=0.5;exitY=1;exitDx=0;exitDy=0;entryX=0.5;entryY=0;entryDx=0;entryDy=0;" parent="WIyWlLk6GJQsqaUBKTNV-1" source="9HEpveWAv9ixlDzTCL7B-7" target="9HEpveWAv9ixlDzTCL7B-8" edge="1">
          <mxGeometry relative="1" as="geometry" />
        </mxCell>
        <mxCell id="9HEpveWAv9ixlDzTCL7B-25" style="edgeStyle=orthogonalEdgeStyle;rounded=0;orthogonalLoop=1;jettySize=auto;html=1;exitX=1;exitY=0.5;exitDx=0;exitDy=0;entryX=0.5;entryY=0;entryDx=0;entryDy=0;" parent="WIyWlLk6GJQsqaUBKTNV-1" source="9HEpveWAv9ixlDzTCL7B-7" target="9HEpveWAv9ixlDzTCL7B-10" edge="1">
          <mxGeometry relative="1" as="geometry">
            <mxPoint x="600" y="680" as="targetPoint" />
          </mxGeometry>
        </mxCell>
        <mxCell id="9HEpveWAv9ixlDzTCL7B-7" value="nilai = 3" style="rhombus;whiteSpace=wrap;html=1;" parent="WIyWlLk6GJQsqaUBKTNV-1" vertex="1">
          <mxGeometry x="400" y="640" width="80" height="80" as="geometry" />
        </mxCell>
        <mxCell id="9HEpveWAv9ixlDzTCL7B-24" style="edgeStyle=orthogonalEdgeStyle;rounded=0;orthogonalLoop=1;jettySize=auto;html=1;exitX=0;exitY=0.5;exitDx=0;exitDy=0;" parent="WIyWlLk6GJQsqaUBKTNV-1" source="9HEpveWAv9ixlDzTCL7B-8" edge="1">
          <mxGeometry relative="1" as="geometry">
            <mxPoint x="120" y="800" as="targetPoint" />
          </mxGeometry>
        </mxCell>
        <mxCell id="9HEpveWAv9ixlDzTCL7B-8" value="&lt;font style=&quot;font-size: 12px;&quot;&gt;&quot;Hasil&lt;br&gt;Konversi dari Nilai 3 Adalah C&quot;&lt;/font&gt;" style="shape=parallelogram;perimeter=parallelogramPerimeter;whiteSpace=wrap;html=1;fixedSize=1;size=15;align=center;" parent="WIyWlLk6GJQsqaUBKTNV-1" vertex="1">
          <mxGeometry x="360" y="760" width="160" height="80" as="geometry" />
        </mxCell>
        <mxCell id="9HEpveWAv9ixlDzTCL7B-9" value="int nilai" style="shape=parallelogram;perimeter=parallelogramPerimeter;whiteSpace=wrap;html=1;fixedSize=1;" parent="WIyWlLk6GJQsqaUBKTNV-1" vertex="1">
          <mxGeometry x="60" y="280" width="120" height="80" as="geometry" />
        </mxCell>
        <mxCell id="9HEpveWAv9ixlDzTCL7B-26" style="edgeStyle=orthogonalEdgeStyle;rounded=0;orthogonalLoop=1;jettySize=auto;html=1;exitX=0.5;exitY=1;exitDx=0;exitDy=0;entryX=0.5;entryY=0;entryDx=0;entryDy=0;" parent="WIyWlLk6GJQsqaUBKTNV-1" source="9HEpveWAv9ixlDzTCL7B-10" target="9HEpveWAv9ixlDzTCL7B-11" edge="1">
          <mxGeometry relative="1" as="geometry" />
        </mxCell>
        <mxCell id="XoygrLzeGmmTXT4mBBrD-5" style="edgeStyle=orthogonalEdgeStyle;rounded=0;orthogonalLoop=1;jettySize=auto;html=1;exitX=1;exitY=0.5;exitDx=0;exitDy=0;entryX=0.5;entryY=0;entryDx=0;entryDy=0;" edge="1" parent="WIyWlLk6GJQsqaUBKTNV-1" source="9HEpveWAv9ixlDzTCL7B-10" target="XoygrLzeGmmTXT4mBBrD-1">
          <mxGeometry relative="1" as="geometry">
            <mxPoint x="760" y="800" as="targetPoint" />
          </mxGeometry>
        </mxCell>
        <mxCell id="9HEpveWAv9ixlDzTCL7B-10" value="nilai = 4" style="rhombus;whiteSpace=wrap;html=1;" parent="WIyWlLk6GJQsqaUBKTNV-1" vertex="1">
          <mxGeometry x="560" y="760" width="80" height="80" as="geometry" />
        </mxCell>
        <mxCell id="9HEpveWAv9ixlDzTCL7B-27" style="edgeStyle=orthogonalEdgeStyle;rounded=0;orthogonalLoop=1;jettySize=auto;html=1;exitX=0;exitY=0.5;exitDx=0;exitDy=0;" parent="WIyWlLk6GJQsqaUBKTNV-1" source="9HEpveWAv9ixlDzTCL7B-11" edge="1">
          <mxGeometry relative="1" as="geometry">
            <mxPoint x="120" y="920" as="targetPoint" />
          </mxGeometry>
        </mxCell>
        <mxCell id="9HEpveWAv9ixlDzTCL7B-11" value="&quot;Hasil&lt;br/&gt;Konversi dari Nilai 4 Adalah D&quot;" style="shape=parallelogram;perimeter=parallelogramPerimeter;whiteSpace=wrap;html=1;fixedSize=1;size=15;" parent="WIyWlLk6GJQsqaUBKTNV-1" vertex="1">
          <mxGeometry x="520" y="880" width="160" height="80" as="geometry" />
        </mxCell>
        <mxCell id="9HEpveWAv9ixlDzTCL7B-16" value="END" style="rounded=1;whiteSpace=wrap;html=1;arcSize=50;" parent="WIyWlLk6GJQsqaUBKTNV-1" vertex="1">
          <mxGeometry x="60" y="1200" width="120" height="40" as="geometry" />
        </mxCell>
        <mxCell id="XoygrLzeGmmTXT4mBBrD-8" style="edgeStyle=orthogonalEdgeStyle;rounded=0;orthogonalLoop=1;jettySize=auto;html=1;exitX=0;exitY=0.5;exitDx=0;exitDy=0;" edge="1" parent="WIyWlLk6GJQsqaUBKTNV-1" source="9HEpveWAv9ixlDzTCL7B-17">
          <mxGeometry relative="1" as="geometry">
            <mxPoint x="120" y="1160" as="targetPoint" />
          </mxGeometry>
        </mxCell>
        <mxCell id="9HEpveWAv9ixlDzTCL7B-17" value="&quot;Nilai Tidak Valid&quot;" style="shape=parallelogram;perimeter=parallelogramPerimeter;whiteSpace=wrap;html=1;fixedSize=1;size=15;" parent="WIyWlLk6GJQsqaUBKTNV-1" vertex="1">
          <mxGeometry x="840" y="1120" width="160" height="80" as="geometry" />
        </mxCell>
        <mxCell id="9HEpveWAv9ixlDzTCL7B-31" value="&lt;b&gt;T&lt;/b&gt;" style="text;html=1;align=center;verticalAlign=middle;resizable=0;points=[];autosize=1;strokeColor=none;fillColor=none;" parent="WIyWlLk6GJQsqaUBKTNV-1" vertex="1">
          <mxGeometry x="90" y="480" width="30" height="30" as="geometry" />
        </mxCell>
        <mxCell id="9HEpveWAv9ixlDzTCL7B-32" value="&lt;b&gt;T&lt;/b&gt;" style="text;html=1;align=center;verticalAlign=middle;resizable=0;points=[];autosize=1;strokeColor=none;fillColor=none;" parent="WIyWlLk6GJQsqaUBKTNV-1" vertex="1">
          <mxGeometry x="250" y="600" width="30" height="30" as="geometry" />
        </mxCell>
        <mxCell id="9HEpveWAv9ixlDzTCL7B-33" value="&lt;b&gt;T&lt;/b&gt;" style="text;html=1;align=center;verticalAlign=middle;resizable=0;points=[];autosize=1;strokeColor=none;fillColor=none;" parent="WIyWlLk6GJQsqaUBKTNV-1" vertex="1">
          <mxGeometry x="410" y="720" width="30" height="30" as="geometry" />
        </mxCell>
        <mxCell id="9HEpveWAv9ixlDzTCL7B-34" value="&lt;b&gt;T&lt;/b&gt;" style="text;html=1;align=center;verticalAlign=middle;resizable=0;points=[];autosize=1;strokeColor=none;fillColor=none;" parent="WIyWlLk6GJQsqaUBKTNV-1" vertex="1">
          <mxGeometry x="570" y="840" width="30" height="30" as="geometry" />
        </mxCell>
        <mxCell id="9HEpveWAv9ixlDzTCL7B-35" value="&lt;b&gt;F&lt;/b&gt;" style="text;html=1;align=center;verticalAlign=middle;resizable=0;points=[];autosize=1;strokeColor=none;fillColor=none;" parent="WIyWlLk6GJQsqaUBKTNV-1" vertex="1">
          <mxGeometry x="160" y="410" width="30" height="30" as="geometry" />
        </mxCell>
        <mxCell id="9HEpveWAv9ixlDzTCL7B-36" value="&lt;b&gt;F&lt;/b&gt;" style="text;html=1;align=center;verticalAlign=middle;resizable=0;points=[];autosize=1;strokeColor=none;fillColor=none;" parent="WIyWlLk6GJQsqaUBKTNV-1" vertex="1">
          <mxGeometry x="320" y="530" width="30" height="30" as="geometry" />
        </mxCell>
        <mxCell id="9HEpveWAv9ixlDzTCL7B-37" value="&lt;b&gt;F&lt;/b&gt;" style="text;html=1;align=center;verticalAlign=middle;resizable=0;points=[];autosize=1;strokeColor=none;fillColor=none;" parent="WIyWlLk6GJQsqaUBKTNV-1" vertex="1">
          <mxGeometry x="480" y="650" width="30" height="30" as="geometry" />
        </mxCell>
        <mxCell id="9HEpveWAv9ixlDzTCL7B-38" value="&lt;b&gt;F&lt;/b&gt;" style="text;html=1;align=center;verticalAlign=middle;resizable=0;points=[];autosize=1;strokeColor=none;fillColor=none;" parent="WIyWlLk6GJQsqaUBKTNV-1" vertex="1">
          <mxGeometry x="640" y="770" width="30" height="30" as="geometry" />
        </mxCell>
        <mxCell id="XoygrLzeGmmTXT4mBBrD-0" style="edgeStyle=orthogonalEdgeStyle;rounded=0;orthogonalLoop=1;jettySize=auto;html=1;exitX=0.5;exitY=1;exitDx=0;exitDy=0;entryX=0.5;entryY=0;entryDx=0;entryDy=0;" edge="1" parent="WIyWlLk6GJQsqaUBKTNV-1" source="XoygrLzeGmmTXT4mBBrD-1" target="XoygrLzeGmmTXT4mBBrD-2">
          <mxGeometry relative="1" as="geometry" />
        </mxCell>
        <mxCell id="XoygrLzeGmmTXT4mBBrD-7" style="edgeStyle=orthogonalEdgeStyle;rounded=0;orthogonalLoop=1;jettySize=auto;html=1;exitX=1;exitY=0.5;exitDx=0;exitDy=0;entryX=0.5;entryY=0;entryDx=0;entryDy=0;" edge="1" parent="WIyWlLk6GJQsqaUBKTNV-1" source="XoygrLzeGmmTXT4mBBrD-1" target="9HEpveWAv9ixlDzTCL7B-17">
          <mxGeometry relative="1" as="geometry">
            <mxPoint x="920" y="920" as="targetPoint" />
          </mxGeometry>
        </mxCell>
        <mxCell id="XoygrLzeGmmTXT4mBBrD-1" value="nilai = 5" style="rhombus;whiteSpace=wrap;html=1;" vertex="1" parent="WIyWlLk6GJQsqaUBKTNV-1">
          <mxGeometry x="720" y="880" width="80" height="80" as="geometry" />
        </mxCell>
        <mxCell id="XoygrLzeGmmTXT4mBBrD-6" style="edgeStyle=orthogonalEdgeStyle;rounded=0;orthogonalLoop=1;jettySize=auto;html=1;exitX=0;exitY=0.5;exitDx=0;exitDy=0;" edge="1" parent="WIyWlLk6GJQsqaUBKTNV-1" source="XoygrLzeGmmTXT4mBBrD-2">
          <mxGeometry relative="1" as="geometry">
            <mxPoint x="120" y="1040" as="targetPoint" />
          </mxGeometry>
        </mxCell>
        <mxCell id="XoygrLzeGmmTXT4mBBrD-2" value="&quot;Hasil&lt;br&gt;Konversi dari Nilai 5 Adalah E&quot;" style="shape=parallelogram;perimeter=parallelogramPerimeter;whiteSpace=wrap;html=1;fixedSize=1;size=15;" vertex="1" parent="WIyWlLk6GJQsqaUBKTNV-1">
          <mxGeometry x="680" y="1000" width="160" height="80" as="geometry" />
        </mxCell>
        <mxCell id="XoygrLzeGmmTXT4mBBrD-3" value="&lt;b&gt;T&lt;/b&gt;" style="text;html=1;align=center;verticalAlign=middle;resizable=0;points=[];autosize=1;strokeColor=none;fillColor=none;" vertex="1" parent="WIyWlLk6GJQsqaUBKTNV-1">
          <mxGeometry x="730" y="960" width="30" height="30" as="geometry" />
        </mxCell>
        <mxCell id="XoygrLzeGmmTXT4mBBrD-4" value="&lt;b&gt;F&lt;/b&gt;" style="text;html=1;align=center;verticalAlign=middle;resizable=0;points=[];autosize=1;strokeColor=none;fillColor=none;" vertex="1" parent="WIyWlLk6GJQsqaUBKTNV-1">
          <mxGeometry x="800" y="890" width="30" height="30" as="geometry" />
        </mxCell>
      </root>
    </mxGraphModel>
  </diagram>
</mxfile>
